<svg xmlns="http://www.w3.org/2000/svg" width="1920" height="983" fill="none" viewBox="0 0 1920 983"><path fill="#FFCF2D" d="M0 133H1920V983H0V133Z"/><path fill="#fff" d="M91.9075 821.537C90.621 821.537 89.6562 820.565 89.6562 819.268C89.6562 817.972 90.621 817 91.9075 817C93.1941 817 94.1589 817.972 94.1589 819.268C94.1589 820.565 93.0868 821.537 91.9075 821.537Z"/><path fill="#fff" d="M91.9075 840.872C90.621 840.872 89.6562 839.9 89.6562 838.603C89.6562 837.307 90.621 836.335 91.9075 836.335C93.1941 836.335 94.1589 837.307 94.1589 838.603C94.1589 839.792 93.0868 840.872 91.9075 840.872Z"/><path fill="#fff" d="M91.9075 860.098C90.621 860.098 89.6562 859.126 89.6562 857.83C89.6562 856.534 90.621 855.562 91.9075 855.562C93.1941 855.562 94.1589 856.534 94.1589 857.83C94.1589 859.126 93.0868 860.098 91.9075 860.098Z"/><path fill="#fff" d="M91.9075 879.433C90.621 879.433 89.6562 878.461 89.6562 877.165C89.6562 875.869 90.621 874.897 91.9075 874.897C93.194 874.897 94.1589 875.869 94.1589 877.165C94.1589 878.461 93.0868 879.433 91.9075 879.433Z"/><path fill="#fff" d="M91.9075 898.768C90.621 898.768 89.6562 897.796 89.6562 896.5C89.6562 895.204 90.621 894.232 91.9075 894.232C93.194 894.232 94.1589 895.204 94.1589 896.5C94.1589 897.688 93.0868 898.768 91.9075 898.768Z"/><path fill="#fff" d="M91.9075 918.103C90.621 918.103 89.6562 917.131 89.6562 915.835C89.6562 914.539 90.621 913.567 91.9075 913.567C93.194 913.567 94.1589 914.539 94.1589 915.835C94.1589 917.131 93.0868 918.103 91.9075 918.103Z"/><path fill="#fff" d="M91.9075 937.33C90.621 937.33 89.6562 936.358 89.6562 935.062C89.6562 933.766 90.621 932.793 91.9075 932.793C93.194 932.793 94.1589 933.766 94.1589 935.062C94.1589 936.358 93.0868 937.33 91.9075 937.33Z"/><path fill="#fff" d="M91.9075 956.665C90.621 956.665 89.6562 955.693 89.6562 954.397C89.6562 953.101 90.621 952.128 91.9075 952.128C93.194 952.128 94.1589 953.101 94.1589 954.397C94.1589 955.693 93.0868 956.665 91.9075 956.665Z"/><path fill="#fff" d="M91.9075 976C90.621 976 89.6562 975.028 89.6562 973.732C89.6562 972.436 90.621 971.463 91.9075 971.463C93.194 971.463 94.1589 972.436 94.1589 973.732C94.1589 974.92 93.0868 976 91.9075 976Z"/><path fill="#fff" d="M75.9335 821.537C74.647 821.537 73.6822 820.565 73.6822 819.268C73.6822 817.972 74.647 817 75.9335 817C77.22 817 78.1849 817.972 78.1849 819.268C78.1849 820.565 77.22 821.537 75.9335 821.537Z"/><path fill="#fff" d="M75.9335 840.872C74.647 840.872 73.6822 839.899 73.6822 838.603C73.6822 837.307 74.647 836.335 75.9335 836.335C77.22 836.335 78.1849 837.307 78.1849 838.603C78.1849 839.791 77.22 840.872 75.9335 840.872Z"/><path fill="#fff" d="M75.9335 860.098C74.647 860.098 73.6822 859.126 73.6822 857.83C73.6822 856.534 74.647 855.562 75.9335 855.562C77.22 855.562 78.1849 856.534 78.1849 857.83C78.1849 859.126 77.22 860.098 75.9335 860.098Z"/><path fill="#fff" d="M75.9335 879.433C74.647 879.433 73.6822 878.461 73.6822 877.165C73.6822 875.869 74.647 874.897 75.9335 874.897C77.22 874.897 78.1849 875.869 78.1849 877.165C78.1849 878.461 77.22 879.433 75.9335 879.433Z"/><path fill="#fff" d="M75.9335 898.768C74.647 898.768 73.6822 897.796 73.6822 896.5C73.6822 895.204 74.647 894.232 75.9335 894.232C77.22 894.232 78.1849 895.204 78.1849 896.5C78.1849 897.688 77.22 898.768 75.9335 898.768Z"/><path fill="#fff" d="M75.9335 918.103C74.647 918.103 73.6821 917.131 73.6821 915.835C73.6821 914.539 74.647 913.567 75.9335 913.567C77.22 913.567 78.1849 914.539 78.1849 915.835C78.1849 917.131 77.22 918.103 75.9335 918.103Z"/><path fill="#fff" d="M75.9335 937.33C74.647 937.33 73.6821 936.358 73.6821 935.062C73.6821 933.766 74.647 932.793 75.9335 932.793C77.22 932.793 78.1849 933.766 78.1849 935.062C78.1849 936.358 77.22 937.33 75.9335 937.33Z"/><path fill="#fff" d="M75.9335 956.665C74.647 956.665 73.6821 955.693 73.6821 954.397C73.6821 953.101 74.647 952.128 75.9335 952.128C77.22 952.128 78.1849 953.101 78.1849 954.397C78.1849 955.693 77.22 956.665 75.9335 956.665Z"/><path fill="#fff" d="M75.9335 976C74.647 976 73.6821 975.028 73.6821 973.732C73.6821 972.436 74.647 971.463 75.9335 971.463C77.22 971.463 78.1849 972.436 78.1849 973.732C78.1849 974.92 77.22 976 75.9335 976Z"/><path fill="#fff" d="M123.749 821.537C122.462 821.537 121.497 820.565 121.497 819.268C121.497 817.972 122.462 817 123.749 817C125.035 817 126 817.972 126 819.268C126 820.565 125.035 821.537 123.749 821.537Z"/><path fill="#fff" d="M123.749 840.872C122.462 840.872 121.497 839.9 121.497 838.603C121.497 837.307 122.462 836.335 123.749 836.335C125.035 836.335 126 837.307 126 838.603C126 839.792 125.035 840.872 123.749 840.872Z"/><path fill="#fff" d="M123.749 860.098C122.462 860.098 121.497 859.126 121.497 857.83C121.497 856.534 122.462 855.562 123.749 855.562C125.035 855.562 126 856.642 126 857.83C126 859.126 125.035 860.098 123.749 860.098Z"/><path fill="#fff" d="M123.749 879.433C122.462 879.433 121.497 878.461 121.497 877.165C121.497 875.869 122.462 874.897 123.749 874.897C125.035 874.897 126 875.977 126 877.165C126 878.353 125.035 879.433 123.749 879.433Z"/><path fill="#fff" d="M123.749 898.768C122.462 898.768 121.497 897.796 121.497 896.5C121.497 895.204 122.462 894.232 123.749 894.232C125.035 894.232 126 895.204 126 896.5C126 897.688 125.035 898.768 123.749 898.768Z"/><path fill="#fff" d="M123.749 918.103C122.462 918.103 121.497 917.131 121.497 915.835C121.497 914.539 122.462 913.567 123.749 913.567C125.035 913.567 126 914.539 126 915.835C126 917.131 125.035 918.103 123.749 918.103Z"/><path fill="#fff" d="M123.749 937.33C122.462 937.33 121.497 936.358 121.497 935.062C121.497 933.766 122.462 932.793 123.749 932.793C125.035 932.793 126 933.766 126 935.062C126 936.358 125.035 937.33 123.749 937.33Z"/><path fill="#fff" d="M123.749 956.665C122.462 956.665 121.497 955.693 121.497 954.397C121.497 953.101 122.462 952.128 123.749 952.128C125.035 952.128 126 953.101 126 954.397C126 955.693 125.035 956.665 123.749 956.665Z"/><path fill="#fff" d="M123.749 976C122.462 976 121.497 975.028 121.497 973.732C121.497 972.436 122.462 971.463 123.749 971.463C125.035 971.463 126 972.436 126 973.732C126 974.92 125.035 976 123.749 976Z"/><path fill="#fff" d="M107.774 821.537C106.488 821.537 105.523 820.565 105.523 819.268C105.523 817.972 106.595 817 107.774 817C109.061 817 110.026 817.972 110.026 819.268C110.026 820.565 109.061 821.537 107.774 821.537Z"/><path fill="#fff" d="M107.774 840.872C106.488 840.872 105.523 839.9 105.523 838.603C105.523 837.307 106.488 836.335 107.774 836.335C109.061 836.335 110.026 837.307 110.026 838.603C110.026 839.792 109.061 840.872 107.774 840.872Z"/><path fill="#fff" d="M107.774 860.098C106.488 860.098 105.523 859.126 105.523 857.83C105.523 856.534 106.488 855.562 107.774 855.562C109.061 855.562 110.026 856.534 110.026 857.83C110.026 859.126 109.061 860.098 107.774 860.098Z"/><path fill="#fff" d="M107.774 879.433C106.488 879.433 105.523 878.461 105.523 877.165C105.523 875.869 106.488 874.897 107.774 874.897C109.061 874.897 110.026 875.869 110.026 877.165C110.026 878.461 109.061 879.433 107.774 879.433Z"/><path fill="#fff" d="M107.774 898.768C106.488 898.768 105.523 897.796 105.523 896.5C105.523 895.204 106.488 894.232 107.774 894.232C109.061 894.232 110.026 895.204 110.026 896.5C110.026 897.688 109.061 898.768 107.774 898.768Z"/><path fill="#fff" d="M107.774 918.103C106.488 918.103 105.523 917.131 105.523 915.835C105.523 914.539 106.488 913.567 107.774 913.567C109.061 913.567 110.026 914.539 110.026 915.835C110.026 917.131 109.061 918.103 107.774 918.103Z"/><path fill="#fff" d="M107.774 937.33C106.488 937.33 105.523 936.358 105.523 935.062C105.523 933.766 106.488 932.793 107.774 932.793C109.061 932.793 110.026 933.766 110.026 935.062C110.026 936.358 109.061 937.33 107.774 937.33Z"/><path fill="#fff" d="M107.774 956.665C106.488 956.665 105.523 955.693 105.523 954.397C105.523 953.101 106.488 952.128 107.774 952.128C109.061 952.128 110.026 953.101 110.026 954.397C110.026 955.693 109.061 956.665 107.774 956.665Z"/><path fill="#fff" d="M107.774 976C106.488 976 105.523 975.028 105.523 973.732C105.523 972.436 106.488 971.463 107.774 971.463C109.061 971.463 110.026 972.436 110.026 973.732C110.026 974.92 109.061 976 107.774 976Z"/><path fill="#fff" d="M60.0665 821.537C58.78 821.537 57.8151 820.565 57.8151 819.268C57.8151 817.972 58.78 817 60.0665 817C61.353 817 62.3179 817.972 62.3179 819.268C62.3179 820.565 61.2458 821.537 60.0665 821.537Z"/><path fill="#fff" d="M60.0665 840.872C58.78 840.872 57.8151 839.899 57.8151 838.603C57.8151 837.307 58.78 836.335 60.0665 836.335C61.353 836.335 62.3179 837.307 62.3179 838.603C62.3179 839.791 61.2458 840.872 60.0665 840.872Z"/><path fill="#fff" d="M60.0665 860.098C58.78 860.098 57.8151 859.126 57.8151 857.83C57.8151 856.534 58.78 855.562 60.0665 855.562C61.353 855.562 62.3179 856.534 62.3179 857.83C62.3179 859.126 61.2458 860.098 60.0665 860.098Z"/><path fill="#fff" d="M60.0665 879.433C58.78 879.433 57.8151 878.461 57.8151 877.165C57.8151 875.869 58.78 874.897 60.0665 874.897C61.353 874.897 62.3179 875.869 62.3179 877.165C62.3179 878.461 61.2458 879.433 60.0665 879.433Z"/><path fill="#fff" d="M60.0665 898.768C58.78 898.768 57.8151 897.796 57.8151 896.5C57.8151 895.204 58.78 894.232 60.0665 894.232C61.353 894.232 62.3179 895.204 62.3179 896.5C62.3179 897.688 61.2458 898.768 60.0665 898.768Z"/><path fill="#fff" d="M60.0665 918.103C58.78 918.103 57.8151 917.131 57.8151 915.835C57.8151 914.539 58.78 913.567 60.0665 913.567C61.353 913.567 62.3179 914.539 62.3179 915.835C62.3179 917.131 61.2458 918.103 60.0665 918.103Z"/><path fill="#fff" d="M60.0665 937.33C58.78 937.33 57.8151 936.358 57.8151 935.062C57.8151 933.766 58.78 932.793 60.0665 932.793C61.353 932.793 62.3179 933.766 62.3179 935.062C62.3179 936.358 61.2458 937.33 60.0665 937.33Z"/><path fill="#fff" d="M60.0665 956.665C58.78 956.665 57.8151 955.693 57.8151 954.397C57.8151 953.101 58.78 952.128 60.0665 952.128C61.353 952.128 62.3178 953.101 62.3178 954.397C62.3178 955.693 61.2458 956.665 60.0665 956.665Z"/><path fill="#fff" d="M60.0665 976C58.78 976 57.8151 975.028 57.8151 973.732C57.8151 972.436 58.78 971.463 60.0665 971.463C61.353 971.463 62.3178 972.436 62.3178 973.732C62.3178 974.92 61.2458 976 60.0665 976Z"/><path fill="#fff" d="M44.0925 821.537C42.806 821.537 41.8411 820.565 41.8411 819.268C41.8411 817.972 42.806 817 44.0925 817C45.379 817 46.3438 817.972 46.3438 819.268C46.3438 820.565 45.379 821.537 44.0925 821.537Z"/><path fill="#fff" d="M44.0925 840.872C42.806 840.872 41.8411 839.899 41.8411 838.603C41.8411 837.307 42.806 836.335 44.0925 836.335C45.379 836.335 46.3438 837.307 46.3438 838.603C46.3438 839.791 45.379 840.872 44.0925 840.872Z"/><path fill="#fff" d="M44.0925 860.098C42.806 860.098 41.8411 859.126 41.8411 857.83C41.8411 856.534 42.806 855.562 44.0925 855.562C45.379 855.562 46.3438 856.534 46.3438 857.83C46.3438 859.126 45.379 860.098 44.0925 860.098Z"/><path fill="#fff" d="M41.8411 877.165C41.8411 878.418 42.8491 879.433 44.0925 879.433C45.3359 879.433 46.3438 878.418 46.3438 877.165C46.3438 875.912 45.3359 874.897 44.0925 874.897C42.8491 874.897 41.8411 875.912 41.8411 877.165Z"/><path fill="#fff" d="M44.0925 898.768C42.806 898.768 41.8411 897.796 41.8411 896.5C41.8411 895.204 42.806 894.232 44.0925 894.232C45.379 894.232 46.3438 895.204 46.3438 896.5C46.3438 897.688 45.379 898.768 44.0925 898.768Z"/><path fill="#fff" d="M44.0925 918.103C42.806 918.103 41.8411 917.131 41.8411 915.835C41.8411 914.539 42.806 913.567 44.0925 913.567C45.379 913.567 46.3438 914.539 46.3438 915.835C46.3438 917.131 45.379 918.103 44.0925 918.103Z"/><path fill="#fff" d="M44.0925 937.33C42.806 937.33 41.8411 936.358 41.8411 935.062C41.8411 933.766 42.806 932.793 44.0925 932.793C45.379 932.793 46.3438 933.766 46.3438 935.062C46.3438 936.358 45.379 937.33 44.0925 937.33Z"/><path fill="#fff" d="M41.8411 954.397C41.8411 955.65 42.8491 956.665 44.0925 956.665C45.3359 956.665 46.3438 955.65 46.3438 954.397C46.3438 953.144 45.3359 952.128 44.0925 952.128C42.8491 952.128 41.8411 953.144 41.8411 954.397Z"/><path fill="#fff" d="M44.0925 976C42.806 976 41.8411 975.028 41.8411 973.732C41.8411 972.436 42.806 971.463 44.0925 971.463C45.379 971.463 46.3438 972.436 46.3438 973.732C46.3438 974.92 45.379 976 44.0925 976Z"/><path fill="#fff" d="M28.1183 821.537C26.8318 821.537 25.8669 820.565 25.8669 819.268C25.8669 817.972 26.8318 817 28.1183 817C29.4048 817 30.3697 817.972 30.3697 819.268C30.3697 820.565 29.4048 821.537 28.1183 821.537Z"/><path fill="#fff" d="M28.1183 840.872C26.8318 840.872 25.8669 839.899 25.8669 838.603C25.8669 837.307 26.8318 836.335 28.1183 836.335C29.4048 836.335 30.3697 837.307 30.3697 838.603C30.3697 839.791 29.4048 840.872 28.1183 840.872Z"/><path fill="#fff" d="M28.1183 860.098C26.8318 860.098 25.8669 859.126 25.8669 857.83C25.8669 856.534 26.8318 855.562 28.1183 855.562C29.4048 855.562 30.3697 856.534 30.3697 857.83C30.3697 859.126 29.4048 860.098 28.1183 860.098Z"/><path fill="#fff" d="M28.1183 879.433C26.8318 879.433 25.8669 878.461 25.8669 877.165C25.8669 875.869 26.8318 874.897 28.1183 874.897C29.4048 874.897 30.3697 875.869 30.3697 877.165C30.3697 878.461 29.4048 879.433 28.1183 879.433Z"/><path fill="#fff" d="M28.1183 898.768C26.8318 898.768 25.8669 897.796 25.8669 896.5C25.8669 895.204 26.8318 894.232 28.1183 894.232C29.4048 894.232 30.3697 895.204 30.3697 896.5C30.3697 897.688 29.4048 898.768 28.1183 898.768Z"/><path fill="#fff" d="M28.1183 918.103C26.8318 918.103 25.8669 917.131 25.8669 915.835C25.8669 914.539 26.8318 913.567 28.1183 913.567C29.4048 913.567 30.3697 914.539 30.3697 915.835C30.3697 917.131 29.4048 918.103 28.1183 918.103Z"/><path fill="#fff" d="M28.1183 937.33C26.8318 937.33 25.8669 936.358 25.8669 935.062C25.8669 933.766 26.8318 932.793 28.1183 932.793C29.4048 932.793 30.3697 933.766 30.3697 935.062C30.3697 936.358 29.4048 937.33 28.1183 937.33Z"/><path fill="#fff" d="M28.1183 956.665C26.8318 956.665 25.8669 955.693 25.8669 954.397C25.8669 953.101 26.8318 952.128 28.1183 952.128C29.4048 952.128 30.3697 953.101 30.3697 954.397C30.3697 955.693 29.4048 956.665 28.1183 956.665Z"/><path fill="#fff" d="M28.1183 976C26.8318 976 25.8669 975.028 25.8669 973.732C25.8669 972.436 26.8318 971.463 28.1183 971.463C29.4048 971.463 30.3697 972.436 30.3697 973.732C30.3697 974.92 29.4048 976 28.1183 976Z"/><path fill="#fff" d="M12.2514 821.537C10.9649 821.537 10 820.565 10 819.268C10 817.972 10.9649 817 12.2514 817C13.5379 817 14.5028 817.972 14.5028 819.268C14.5028 820.565 13.4307 821.537 12.2514 821.537Z"/><path fill="#fff" d="M12.2514 840.872C10.9649 840.872 10 839.899 10 838.603C10 837.307 10.9649 836.335 12.2514 836.335C13.5379 836.335 14.5028 837.307 14.5028 838.603C14.5028 839.791 13.4307 840.872 12.2514 840.872Z"/><path fill="#fff" d="M12.2514 860.098C10.9649 860.098 10 859.126 10 857.83C10 856.534 10.9649 855.562 12.2514 855.562C13.5379 855.562 14.5028 856.534 14.5028 857.83C14.5028 859.126 13.4307 860.098 12.2514 860.098Z"/><path fill="#fff" d="M12.2514 879.433C10.9649 879.433 10 878.461 10 877.165C10 875.869 10.9649 874.897 12.2514 874.897C13.5379 874.897 14.5028 875.869 14.5028 877.165C14.5028 878.461 13.4307 879.433 12.2514 879.433Z"/><path fill="#fff" d="M12.2514 898.768C10.9649 898.768 10 897.796 10 896.5C10 895.204 10.9649 894.232 12.2514 894.232C13.5379 894.232 14.5028 895.204 14.5028 896.5C14.5028 897.688 13.4307 898.768 12.2514 898.768Z"/><path fill="#fff" d="M12.2514 918.103C10.9649 918.103 10 917.131 10 915.835C10 914.539 10.9649 913.567 12.2514 913.567C13.5379 913.567 14.5028 914.539 14.5028 915.835C14.5028 917.131 13.4307 918.103 12.2514 918.103Z"/><path fill="#fff" d="M12.2514 937.33C10.9649 937.33 10 936.358 10 935.062C10 933.766 10.9649 932.793 12.2514 932.793C13.5379 932.793 14.5028 933.766 14.5028 935.062C14.5028 936.358 13.4307 937.33 12.2514 937.33Z"/><path fill="#fff" d="M12.2514 956.665C10.9649 956.665 10 955.693 10 954.397C10 953.101 10.9649 952.128 12.2514 952.128C13.5379 952.128 14.5028 953.101 14.5028 954.397C14.5028 955.693 13.4307 956.665 12.2514 956.665Z"/><path fill="#fff" d="M12.2514 976C10.9649 976 10 975.028 10 973.732C10 972.436 10.9649 971.463 12.2514 971.463C13.5379 971.463 14.5028 972.436 14.5028 973.732C14.5028 974.92 13.4307 976 12.2514 976Z"/><path fill="#fff" d="M1838.1 0C1759.54 0 1696 63.5443 1696 142.097C1696 220.456 1759.54 284.195 1838.1 284.195C1916.46 284.195 1980.19 220.651 1980.19 142.097C1980 63.5443 1916.46 0 1838.1 0ZM1838.1 275.034C1764.61 275.034 1705.16 215.583 1705.16 142.097C1705.16 68.6122 1764.61 9.16129 1838.1 9.16129C1911.58 9.16129 1971.03 68.6122 1971.03 142.097C1971.03 215.388 1911.39 275.034 1838.1 275.034Z"/><path fill="#fff" d="M1838.1 30.6027C1776.7 30.6027 1726.8 80.5025 1726.8 141.903C1726.8 203.303 1776.7 253.203 1838.1 253.203C1899.5 253.203 1949.4 203.498 1949.4 142.098C1949.4 80.5025 1899.5 30.6027 1838.1 30.6027ZM1838.1 236.244C1786.05 236.244 1743.76 193.947 1743.76 141.903C1743.76 89.8587 1786.05 47.5608 1838.1 47.5608C1890.14 47.5608 1932.44 89.8587 1932.44 141.903C1932.44 193.947 1890.14 236.244 1838.1 236.244Z"/><path fill="#fff" d="M1838.1 79.5277C1803.6 79.5277 1775.53 107.596 1775.53 142.097C1775.53 176.598 1803.4 204.667 1838.1 204.667C1872.6 204.667 1900.67 176.598 1900.67 142.097C1900.47 107.596 1872.6 79.5277 1838.1 79.5277ZM1838.1 175.624C1819.58 175.624 1804.57 160.615 1804.57 142.097C1804.57 123.58 1819.58 108.571 1838.1 108.571C1856.62 108.571 1871.62 123.58 1871.62 142.097C1871.62 160.615 1856.62 175.624 1838.1 175.624Z"/></svg>