<svg xmlns="http://www.w3.org/2000/svg" xmlns:svg="http://www.w3.org/2000/svg" id="svg867" width="100cm" height="100cm" version="1.1" viewBox="0 0 1000 1000"><defs id="defs861"><clipPath id="clipPath62" clipPathUnits="userSpaceOnUse"><path id="path60" d="M 0,300.566 H 229.971 V 0 H 0 Z"/></clipPath></defs><metadata id="metadata864"/><g id="layer1" transform="translate(0,702.99998)"><ellipse style="opacity:1;fill:#fff;fill-opacity:1;stroke:none;stroke-width:.80697566;stroke-miterlimit:4;stroke-dasharray:none;stroke-dashoffset:0;stroke-opacity:1" id="path823" cx="491.776" cy="-215.105" rx="425.493" ry="427.097"/><g id="g1465" transform="matrix(10.887585,0,0,10.887629,-5253.0455,-880.91486)"><g id="g40" transform="matrix(0.35277777,0,0,-0.35277777,527.65476,24.950877)"><path id="path42" style="fill:#ffed00;fill-opacity:1;fill-rule:nonzero;stroke:none" d="m 0,0 c -56.569,0 -102.591,-46.023 -102.591,-102.591 0,-56.569 46.022,-102.592 102.591,-102.592 56.569,0 102.591,46.023 102.591,102.592 C 102.591,-46.023 56.569,0 0,0 m 0,-215.533 c -62.276,0 -112.942,50.665 -112.942,112.942 0,62.276 50.666,112.941 112.942,112.941 62.276,0 112.942,-50.665 112.942,-112.941 0,-62.277 -50.666,-112.942 -112.942,-112.942"/></g><g id="g56" transform="matrix(0.35277777,0,0,-0.35277777,487.17517,126.83698)"><g id="g58" clip-path="url(#clipPath62)"><g id="g64" transform="translate(105.1912,172.48)"><path id="path66" style="fill:#000;fill-opacity:1;fill-rule:nonzero;stroke:none" d="m 0,0 c -3.494,-6.224 -8.207,-11.03 -14.149,-14.416 -5.942,-3.387 -12.464,-5.08 -19.565,-5.08 -7.101,0 -13.623,1.693 -19.565,5.08 -5.942,3.386 -10.656,8.192 -14.149,14.416 -3.486,6.224 -5.233,12.936 -5.233,20.137 0,11.167 3.829,20.686 11.48,28.557 7.658,7.872 16.811,11.808 27.467,11.808 10.595,0 19.732,-3.936 27.421,-11.808 C 1.388,40.823 5.232,31.304 5.232,20.137 5.232,12.936 3.486,6.224 0,0 m 93.438,52.081 c -2.746,6.407 -7.002,11.503 -12.768,15.286 -4.441,2.913 -8.581406,4.907516 -14.016406,5.577516 -0.3675,0.06283 -0.672446,0.04179 -0.775157,0.06233 L -33.668,73.042 c -15.407999,0.0054 -28.154,-5.584 -38.237,-16.75 -9.169,-10.13 -13.753,-22.09 -13.753,-35.881 0,-13.912 4.843,-26.071 14.531,-36.475 9.694,-10.404 22.173,-15.606 37.459,-15.606 15.217,0 27.673,5.202 37.367,15.606 7.039,7.56 11.486,16.059 13.41,25.471 1.857,5.378 7.224,21.025 8.23,25.1 1.952,7.567 5.995,13.913 12.128,19.039 6.132,5.126 13.073,7.688 20.831,7.688 6.773,0 12.265,-1.662 16.475,-4.988 4.211,-3.326 7.056,-8.284 8.543,-14.874 0.954,-3.844 1.427,-11.502 1.427,-22.974 v -47.505 h 12.814 v 51.258 c 0,13.546 -1.373,23.523 -4.119,29.93"/></g><g id="g68" transform="translate(142.7913,138.7076)"><path id="path70" style="fill:#000;fill-opacity:1;fill-rule:nonzero;stroke:none" d="m 0,0 v -45.657 h -39.54 c -2.568,0 -4.418,0.453 -5.551,1.359 -1.133,0.906 -1.699,2.379 -1.699,4.419 0,1.51 0.396,2.7 1.189,3.568 0.793,0.869 2.134,1.605 4.022,2.21 3.701,1.132 7.1,2.605 10.197,4.418 3.096,1.813 5.74,3.852 7.93,6.118 3.021,3.097 5.325,6.495 6.911,10.196 1.586,3.701 2.681,8.157 3.286,13.369 z"/></g></g></g></g></g></svg>