<svg xmlns="http://www.w3.org/2000/svg" xmlns:svg="http://www.w3.org/2000/svg" id="svg849" width="300cm" height="100cm" version="1.1" viewBox="0 0 3000 1000"><metadata id="metadata846"/><g id="layer1" transform="translate(0,703)"><g id="g12" transform="matrix(12.719223,0,0,-11.949496,2018.6778,-477.61148)"><path d="m 0,0 h 2.83 v -8.167 h 4.488 v -2.446 H 2.83 V -30.162 H 0 v 19.549 h -3.861 v 2.446 H 0 Z" style="fill:#1d1d1b;fill-opacity:1;fill-rule:nonzero;stroke:none" id="path14"/></g><g id="g24" transform="matrix(12.719223,0,0,-11.949496,2388.0311,-275.03647)"><path d="m 0,0 v -23.753 c 0,-0.526 0.101,-0.903 0.303,-1.133 0.108,-0.134 0.209,-0.219 0.303,-0.252 0.095,-0.034 0.405,-0.118 0.93,-0.253 0.647,-0.148 0.971,-0.519 0.971,-1.112 0,-0.35 -0.175,-0.633 -0.526,-0.849 -0.256,-0.162 -0.68,-0.242 -1.273,-0.242 H 0.02 -8.996 -9.522 c -0.485,0 -0.859,0.09 -1.122,0.272 -0.262,0.182 -0.394,0.442 -0.394,0.779 0,0.552 0.27,0.916 0.809,1.091 0.445,0.149 0.704,0.24 0.778,0.273 0.074,0.034 0.152,0.111 0.233,0.233 0.161,0.215 0.242,0.559 0.242,1.031 v 20.236 c 0,0.471 -0.081,0.815 -0.242,1.031 -0.081,0.121 -0.159,0.199 -0.233,0.232 -0.074,0.034 -0.333,0.125 -0.778,0.273 -0.539,0.175 -0.809,0.539 -0.809,1.092 0,0.337 0.132,0.596 0.394,0.778 0.263,0.182 0.637,0.273 1.122,0.273 h 0.526 z" style="fill:#1d1d1b;fill-opacity:1;fill-rule:nonzero;stroke:none" id="path26"/></g><g id="g28" transform="matrix(12.719223,0,0,-11.949496,2409.3727,-99.174383)"><path d="M 0,0 V 2.345 C 0.795,2.722 1.378,3.13 1.749,3.568 2.119,4.006 2.392,4.602 2.567,5.357 2.675,5.869 2.817,6.223 2.992,6.418 3.167,6.614 3.416,6.712 3.74,6.712 4.171,6.712 4.468,6.543 4.629,6.206 4.724,6.031 4.771,5.633 4.771,5.013 V -2.689 C 4.771,-3.322 4.7,-3.76 4.559,-4.003 4.417,-4.245 4.158,-4.367 3.78,-4.367 3.47,-4.367 3.228,-4.272 3.053,-4.084 2.877,-3.895 2.736,-3.578 2.628,-3.133 2.385,-2.204 2.055,-1.489 1.637,-0.991 1.22,-0.492 0.674,-0.162 0,0" style="fill:#1d1d1b;fill-opacity:1;fill-rule:nonzero;stroke:none" id="path30"/></g><g id="g32" transform="matrix(12.719223,0,0,-11.949496,2410.6584,-275.03647)"><path d="m 0,0 h 8.147 v -7.055 c 0,-0.459 -0.081,-0.789 -0.243,-0.991 -0.161,-0.202 -0.424,-0.303 -0.788,-0.303 -0.27,0 -0.482,0.071 -0.637,0.212 C 6.324,-7.995 6.193,-7.756 6.085,-7.419 5.883,-6.759 5.62,-6.152 5.297,-5.6 4.973,-5.047 4.609,-4.576 4.205,-4.185 3.652,-3.646 3.046,-3.235 2.385,-2.952 1.725,-2.668 0.93,-2.473 0,-2.365 Z" style="fill:#ffed00;fill-opacity:1;fill-rule:nonzero;stroke:none" id="path34"/></g><g id="g36" transform="matrix(12.719223,0,0,-11.949496,2709.4406,54.704046)"><path d="M 0,0 V 2.183 C 0.876,2.318 1.6,2.507 2.173,2.749 2.746,2.992 3.322,3.363 3.902,3.861 4.481,4.36 4.943,4.875 5.286,5.408 5.63,5.94 5.957,6.644 6.267,7.52 6.415,7.952 6.57,8.245 6.732,8.4 6.894,8.555 7.116,8.632 7.399,8.632 7.776,8.632 8.039,8.521 8.187,8.299 8.336,8.076 8.41,7.689 8.41,7.136 V 0 Z m -0.02,27.594 h 8.147 v -7.156 c 0,-0.418 -0.081,-0.721 -0.243,-0.91 -0.162,-0.188 -0.418,-0.283 -0.768,-0.283 -0.297,0 -0.512,0.061 -0.647,0.182 -0.135,0.122 -0.263,0.371 -0.384,0.748 -0.512,1.564 -1.264,2.756 -2.254,3.578 -0.991,0.823 -2.274,1.315 -3.851,1.476 z M -0.121,12.877 v 2.345 c 0.781,0.378 1.361,0.789 1.738,1.234 0.378,0.444 0.654,1.037 0.829,1.779 0.108,0.512 0.249,0.865 0.425,1.061 0.175,0.195 0.424,0.293 0.748,0.293 0.431,0 0.727,-0.168 0.889,-0.505 C 4.602,18.908 4.65,18.511 4.65,17.891 V 10.189 C 4.65,9.555 4.579,9.117 4.437,8.875 4.296,8.632 4.036,8.511 3.659,8.511 c -0.31,0 -0.553,0.094 -0.728,0.283 -0.175,0.189 -0.316,0.505 -0.424,0.95 -0.229,0.93 -0.556,1.644 -0.981,2.143 -0.424,0.498 -0.973,0.829 -1.647,0.99 m 3.74,21.247 -5.56,-4.326 -0.364,-0.283 c -0.242,-0.189 -0.458,-0.283 -0.646,-0.283 h -1.476 c -0.364,0 -0.553,0.101 -0.566,0.303 0,0.081 0.027,0.169 0.081,0.263 l 3.012,4.69 c 0.229,0.35 0.418,0.566 0.566,0.647 0.148,0.081 0.418,0.121 0.808,0.121 h 4.023 c 0.176,0 0.324,-0.044 0.445,-0.131 C 4.063,35.037 4.131,34.926 4.144,34.791 4.158,34.63 3.982,34.407 3.619,34.124 m -5.438,-6.53 V 0 h -8.996 -0.526 c -0.485,0 -0.859,0.091 -1.122,0.273 -0.263,0.182 -0.394,0.441 -0.394,0.778 0,0.553 0.269,0.917 0.808,1.092 0.445,0.148 0.705,0.239 0.779,0.273 0.074,0.033 0.151,0.111 0.232,0.232 0.162,0.216 0.243,0.56 0.243,1.031 v 20.236 c 0,0.472 -0.081,0.816 -0.243,1.031 -0.081,0.122 -0.158,0.199 -0.232,0.233 -0.074,0.033 -0.334,0.124 -0.779,0.273 -0.539,0.175 -0.808,0.539 -0.808,1.091 0,0.337 0.131,0.597 0.394,0.779 0.263,0.182 0.637,0.272 1.122,0.272 h 0.526 z" style="fill:#1d1d1b;fill-opacity:1;fill-rule:nonzero;stroke:none" id="path38"/></g><g id="g44" transform="matrix(12.719223,0,0,-11.949496,1636.114,-194.01052)"><path d="m 0,0 c -0.772,-1.375 -1.813,-2.436 -3.125,-3.184 -1.312,-0.748 -2.753,-1.122 -4.321,-1.122 -1.569,0 -3.009,0.374 -4.321,1.122 -1.313,0.748 -2.354,1.809 -3.125,3.184 -0.77,1.375 -1.156,2.857 -1.156,4.447 0,2.467 0.846,4.569 2.535,6.308 1.692,1.738 3.713,2.608 6.067,2.608 2.34,0 4.358,-0.87 6.056,-2.608 C 0.307,9.016 1.156,6.914 1.156,4.447 1.156,2.857 0.77,1.375 0,0 m 20.637,11.503 c -0.607,1.415 -1.547,2.54 -2.82,3.376 -1.009,0.661 -2.167,0.985 -3.408,1.123 0.177,0.077 0.302,0.13 0.302,0.13 H -7.436 c -3.403,0 -6.218,-1.233 -8.445,-3.699 -2.025,-2.238 -3.038,-4.879 -3.038,-7.925 0,-3.073 1.07,-5.758 3.21,-8.056 2.141,-2.298 4.897,-3.447 8.273,-3.447 3.361,0 6.112,1.149 8.253,3.447 1.509,1.62 2.456,3.444 2.901,5.45 0.336,0.971 1.644,4.769 1.878,5.719 0.432,1.671 1.325,3.073 2.679,4.205 1.354,1.132 2.887,1.698 4.601,1.698 1.496,0 2.709,-0.367 3.639,-1.101 0.929,-0.735 1.558,-1.83 1.886,-3.285 0.211,-0.85 0.315,-2.541 0.315,-5.075 V -6.429 h 2.831 V 4.892 c 0,2.992 -0.304,5.196 -0.91,6.611" style="fill:#ffed00;fill-opacity:1;fill-rule:nonzero;stroke:none" id="path46"/></g><g id="g48" transform="matrix(12.719223,0,0,-11.949496,2174.3659,-438.97403)"><path d="M 0,0 5.761,-5.761 0.772,-10.75 c -0.324,-0.324 -0.615,-0.5 -0.872,-0.529 -0.257,-0.028 -0.515,0.086 -0.772,0.344 -0.191,0.19 -0.291,0.39 -0.3,0.6 -0.01,0.21 0.067,0.472 0.229,0.786 0.324,0.61 0.567,1.225 0.729,1.844 0.162,0.62 0.238,1.21 0.228,1.773 -0.009,0.772 -0.147,1.491 -0.414,2.158 -0.267,0.667 -0.691,1.368 -1.272,2.102 z" style="fill:#ffed00;fill-opacity:1;fill-rule:nonzero;stroke:none" id="path50"/></g><text id="text54" x="130.263" y="-116.761" style="font-variant:normal;font-weight:400;font-stretch:normal;font-size:510.41592407px;font-family:'Century Gothic';-inkscape-font-specification:CenturyGothic;writing-mode:lr-tb;fill:#1d1d1b;fill-opacity:1;fill-rule:nonzero;stroke:none;stroke-width:12.32835293" transform="scale(1.0317049,0.96926943)"><tspan style="stroke-width:12.32835293" id="tspan52" x="130.263 347.7 682.024 992.357" y="-116.761">Touc</tspan></text></g></svg>